<svg width="15" height="16" viewBox="0 0 15 16" fill="none" xmlns="http://www.w3.org/2000/svg">
<path d="M6.24451 1.72804C6.01858 1.50835 5.82642 1.31379 5.62513 1.12946C5.60289 1.10914 5.50849 1.01202 5.50849 1.01202L6.52035 0C6.52035 0 6.57123 0.0596813 6.60691 0.096002C7.37637 0.867538 8.94984 2.44197 8.95544 2.45029L6.48451 4.9089C6.19651 4.61498 5.58849 3.98648 5.58849 3.98648L5.51649 3.91048C5.51649 3.91048 6.0053 3.43815 6.19683 3.25271L6.15858 3.18407C5.75938 3.34647 5.34753 3.48343 4.96368 3.67592C3.79773 4.26073 2.93244 5.15627 2.37163 6.32989C1.9257 7.26287 1.73673 8.25169 1.84057 9.28883C2.0409 11.2911 3.02172 12.7988 4.74848 13.8115C5.8261 14.4435 7.00724 14.6755 8.24439 14.5128C10.4918 14.2173 12.0553 12.9976 12.9486 10.9234C13.2077 10.322 13.3327 9.68372 13.3472 9.02595C13.3498 8.90547 13.3472 8.77618 13.3472 8.77618C13.3472 8.77618 13.4752 8.77618 13.6032 8.77618C13.932 8.77618 14.2612 8.78258 14.5896 8.7733C14.665 8.77122 14.7868 8.77682 14.7868 8.77682C14.7868 8.77682 14.7892 8.89347 14.7868 8.96995C14.7548 10.0052 14.5308 10.9956 14.0696 11.9231C13.181 13.7123 11.8014 14.9824 9.89882 15.5965C7.21909 16.4605 4.79152 15.9325 2.68939 14.0555C1.48297 12.9782 0.748071 11.6074 0.493666 10.0145C0.129818 7.73744 0.70919 5.71036 2.25274 3.98232C3.29484 2.8151 4.60015 2.09076 6.12642 1.76004C6.1485 1.75508 6.17058 1.74804 6.24451 1.72804Z" fill="white"/>
</svg>
